<svg width="295" height="295" xmlns="http://www.w3.org/2000/svg">
 <title/>
 <desc/>

 <g>
  <title>background</title>
  <rect fill="none" id="canvas_background" height="402" width="582" y="-1" x="-1"/>
 </g>
 <g>
  <title>Layer 1</title>
  <path id="Shape" fill="#1a2e35" d="m65.815,62.421c-12.683,0 -23,10.317 -23,23c0,12.683 10.317,23 23,23c12.683,0 23,-10.317 23,-23c0,-12.683 -10.317,-23 -23,-23zm0,34c-6.065,0 -11,-4.935 -11,-11c0,-6.065 4.935,-11 11,-11c6.065,0 11,4.935 11,11c0,6.065 -4.934,11 -11,11z"/>
  <path id="Shape" fill="#eb4956" d="m246.339812,79.421l-140,0c-3.313,0 -6,2.687 -6,6c0,3.313 2.687,6 6,6l140,0c3.313,0 6,-2.687 6,-6c0,-3.313 -2.686,-6 -6,-6z"/>
  <path id="Shape" fill="#1a2e35" d="m65.815,124.421c-3.313,0 -6,2.687 -6,6c0,3.313 2.687,6 6,6c6.065,0 11,4.935 11,11c0,6.065 -4.935,11 -11,11c-6.065,0 -11,-4.935 -11,-11c0,-3.313 -2.687,-6 -6,-6c-3.313,0 -6,2.687 -6,6c0,12.683 10.317,23 23,23c12.683,0 23,-10.317 23,-23c0,-12.683 -10.317,-23 -23,-23z"/>
  <path id="Shape" fill="#eb4956" d="m246.815,141.421l-140,0c-3.313,0 -6,2.687 -6,6c0,3.313 2.687,6 6,6l140,0c3.313,0 6,-2.687 6,-6c0,-3.313 -2.686,-6 -6,-6z"/>
  <path id="Shape" fill="#1a2e35" d="m65.815,186.421c-12.683,0 -23,10.317 -23,23c0,12.683 10.317,23 23,23c12.683,0 23,-10.317 23,-23c0,-12.683 -10.317,-23 -23,-23zm0,34c-6.065,0 -11,-4.935 -11,-11c0,-6.065 4.935,-11 11,-11c6.065,0 11,4.935 11,11c0,6.065 -4.934,11 -11,11z"/>
  <path id="Shape" fill="#eb4956" d="m246.815,203.421l-140,0c-3.313,0 -6,2.687 -6,6c0,3.313 2.687,6 6,6l140,0c3.313,0 6,-2.687 6,-6c0,-3.313 -2.686,-6 -6,-6z"/>
 </g>
</svg>